# xmcd
#
# Track frame offsets:
#	150
#	17539
#	31918
#	47752
#	61103
#	78951
#	98137
#	112725
#	131511
#	147436
#	163765
#	179251
#	196267
#	211738
#	227163
#	243369
#	261222
#	275571
#	291117
#
# Disc length: 4090 seconds
#
# Revision: 1
# Processed by: cddbd v1.5.2PL0 Copyright (c) Steve Scherf et al.
# Submitted via: audiograbber 1.83.01
#
DISCID=010ff813
DTITLE=Various Artist - Hott Country 185
DYEAR=2011
DGENRE=Countrty
TTITLE0=Keith Urban - Long Hot Summer ( Tall Mix )
TTITLE1=Shania Twain - Today is Your Day
TTITLE2=Rascal Flatts Fet Natashia Bedingfield - Easy
TTITLE3=George Strait - Here For A Good Time
TTITLE4=Sara Evans - My Heart Can't Tell You No
TTITLE5=Paul Brandt - Give It Away ( Alt Radio Version )
TTITLE6=Randy Travis Feat Brad Paisley - Everything And All
TTITLE7=Ronnie Dunn - Cost Of Living
TTITLE8=Jaydee Bixby - Closer Than You Think
TTITLE9=Alan Jackson - Long Way To Go
TTITLE10=Jason Michael Carroll - Numbers
TTITLE11=Edens Edge - Amen
TTITLE12=Hunter Hayes - Storm Warning
TTITLE13=Melissa Ray Barrie - Miss Me For A Minute
TTITLE14=High Valley - Call Me Old Fashioned
TTITLE15=Josh Kelly - Come Like That
TTITLE16=Lunabelles - A Place To Shine
TTITLE17=Doc Walker - Country Girl
TTITLE18=George Canyon - Sunshine
EXTD=July 2011
EXTT0=
EXTT1=
EXTT2=
EXTT3=
EXTT4=
EXTT5=
EXTT6=
EXTT7=
EXTT8=
EXTT9=
EXTT10=
EXTT11=
EXTT12=
EXTT13=
EXTT14=
EXTT15=
EXTT16=
EXTT17=
EXTT18=
PLAYORDER=
